<svg width="1000" height="1000" xmlns="http://www.w3.org/2000/svg">
 <g stroke="#000" stroke-linejoin="bevel" stroke-width="1.0">
  <g fill="#fff">
   <path d="ZM101,39L78,47L73,82L85,92L103,89L115,56L145,64L134,102L140,119L127,128L120,153L123,184L111,192L104,213L105,226L116,237L141,231L148,207L142,189L157,177L166,141L160,125L173,113L182,82L180,67L166,56L165,31L142,18L110,20L101,39Z" stroke-width="0.0"/>
   <path d="M140,119L160,125L166,141L157,177L142,189L123,184L120,153L127,128L140,119Z"/>
   <path d="M166,56L180,67L182,82L173,113L160,125L140,119L134,102L145,64L166,56Z"/>
   <path d="M166,56L145,64L115,56L101,39L110,20L142,18L165,31L166,56Z"/>
   <path d="M123,184L142,189L148,207L141,231L116,237L105,226L104,213L111,192L123,184Z"/>
   <path d="M101,39L115,56L103,89L85,92L73,82L78,47L101,39Z"/>
  </g>
<g fill="#ddd" fill-opacity="0.0"><path stroke="#ccc" stroke-opacity="0.3" stroke-linecap="round" stroke-width="20" d="M122.00,20.00 L135.00,20.00L155.00,40.00L111.00,40.00L86.00,60.00L160.00,60.00L172.00,80.00L83.00,80.00L145.00,100.00L167.00,100.00L156.00,120.00L149.00,120.00L134.00,140.00L156.00,140.00L151.00,160.00L131.00,160.00L132.00,180.00L144.00,180.00L136.00,200.00L118.00,200.00L114.00,220.00L134.00,220.00 "/> </g> </g>
</svg>
