<svg width="1000" height="1000" xmlns="http://www.w3.org/2000/svg">
 <g stroke="#000" stroke-linejoin="bevel" stroke-width="1.0">
  <g fill="#fff">
   <path d="ZM108,194L105,206L117,210L135,207L133,194L185,175L155,157L175,143L145,124L164,112L136,92L154,80L122,50L89,80L107,91L78,112L98,125L68,143L88,157L58,175L108,194Z" stroke-width="0.0"/>
   <path d="M133,194L108,194L58,175L88,157L68,143L98,125L78,112L107,91L89,80L122,50L154,80L136,92L164,112L145,124L175,143L155,157L185,175L133,194Z"/>
   <path d="M108,194L133,194L135,207L117,210L105,206L108,194Z"/>
  </g>
<g fill="#ddd" fill-opacity="0.0"><path stroke="#ccc" stroke-opacity="0.3" stroke-linecap="round" stroke-width="20" d="M122.00,60.00 L122.00,60.00L143.00,80.00L100.00,80.00L106.00,100.00L137.00,100.00L142.00,120.00L100.00,120.00L85.00,140.00L158.00,140.00L149.00,160.00L94.00,160.00L79.00,180.00L164.00,180.00L124.00,200.00L117.00,200.00 "/> </g> </g>
</svg>
