<svg width="1000" height="1000" xmlns="http://www.w3.org/2000/svg">
 <g stroke="#000" stroke-linejoin="bevel" stroke-width="1.0">
  <g fill="#fff">
   <path d="ZM32,83L43,121L126,203L207,126L221,95L209,54L172,37L147,41L127,56L100,39L68,39L43,56L32,83Z" stroke-width="0.0"/>
   <path d="M32,83L43,56L68,39L100,39L127,56L147,41L172,37L209,54L221,95L207,126L126,203L43,121L32,83Z"/>
  </g>
<g fill="#ddd" fill-opacity="0.0"><path stroke="#ccc" stroke-opacity="0.3" stroke-linecap="round" stroke-width="20" d="M77.00,40.00 L169.00,40.00L200.00,60.00L51.00,60.00L43.00,80.00L206.00,80.00L209.00,100.00L47.00,100.00L53.00,120.00L200.00,120.00L183.00,140.00L71.00,140.00L91.00,160.00L162.00,160.00L141.00,180.00L112.00,180.00L132.00,200.00L120.00,200.00 "/> </g>  <g fill="#fff">
  </g>
<g fill="#ddd" fill-opacity="0.0"><path stroke="#ccc" stroke-opacity="0.3" stroke-linecap="round" stroke-width="20" d="M77.00,40.00 L169.00,40.00L200.00,60.00L51.00,60.00L43.00,80.00L206.00,80.00L209.00,100.00L47.00,100.00L53.00,120.00L200.00,120.00L183.00,140.00L71.00,140.00L91.00,160.00L162.00,160.00L141.00,180.00L112.00,180.00L132.00,200.00L120.00,200.00 "/> </g> </g>
</svg>
