<svg width="1000" height="1000" xmlns="http://www.w3.org/2000/svg">
 <g stroke="#000" stroke-linejoin="bevel" stroke-width="1.0">
  <g fill="#fff">
   <path d="Z" stroke-width="0.0"/>
   <path d="M12,172L21,126L12,80L21,80L36,106L93,105L65,31L79,27L143,106L221,107L240,126L220,144L143,145L79,224L65,220L93,146L36,145L21,172L12,172Z"/>
   <path d="Z"/>
  </g>
<g fill="#ddd" fill-opacity="0.0"><path stroke="#ccc" stroke-opacity="0.3" stroke-linecap="round" stroke-width="20" d="M78.00,40.00 L79.00,40.00L95.00,60.00L86.00,60.00L94.00,80.00L111.00,80.00L128.00,100.00L22.00,100.00L22.00,120.00L224.00,120.00L215.00,140.00L22.00,140.00L22.00,160.00L121.00,160.00L105.00,180.00L90.00,180.00L83.00,200.00L89.00,200.00L72.00,220.00L75.00,220.00 "/> </g> </g>
</svg>
