<svg width="1000" height="1000" xmlns="http://www.w3.org/2000/svg">
 <g stroke="#000" stroke-linejoin="bevel" stroke-width="1.0">
  <g fill="#fff">
   <path d="ZM52,115L57,152L84,181L108,197L127,193L174,153L179,112L167,94L167,77L154,63L177,70L185,51L135,37L105,40L65,77L52,115Z" stroke-width="0.0"/>
   <path d="M52,115L65,77L105,40L135,37L185,51L177,70L154,63L167,77L167,94L179,112L174,153L127,193L108,197L84,181L57,152L52,115ZM83,68L146,70L158,52L116,44L83,68ZM166,55L170,63L179,58L174,50L166,55ZM69,85L163,88L155,77L77,77L69,85ZM59,115L64,149L100,185L127,185L168,148L172,116L166,104L163,128L149,137L121,130L81,137L67,125L66,105L59,115ZM73,113L82,130L112,123L149,130L159,118L154,97L78,97L73,113Z"/>
   <path d="M59,115L66,105L67,125L81,137L121,130L149,137L163,128L166,104L172,116L168,148L127,185L100,185L64,149L59,115ZM99,139L115,150L132,141L99,139Z"/>
   <path d="M73,113L78,97L154,97L159,118L149,130L112,123L82,130L73,113ZM126,108L130,117L139,112L134,103L126,108ZM92,108L97,117L106,112L102,103L92,108Z"/>
   <path d="M83,68L116,44L158,52L146,70L83,68Z"/>
   <path d="M69,85L77,77L155,77L163,88L69,85Z"/>
   <path d="M99,139L132,141L115,150L99,139Z"/>
   <path d="M126,108L134,103L139,112L130,117L126,108Z"/>
   <path d="M92,108L102,103L106,112L97,117L92,108Z"/>
   <path d="M166,55L174,50L179,58L170,63L166,55Z"/>
  </g>
<g fill="#ddd" fill-opacity="0.0"><path stroke="#ccc" stroke-opacity="0.3" stroke-linecap="round" stroke-width="20" d="M120.00,40.00 L134.00,40.00L171.00,60.00L94.00,60.00L74.00,80.00L157.00,80.00L160.00,100.00L67.00,100.00L63.00,120.00L168.00,120.00L166.00,140.00L65.00,140.00L74.00,160.00L156.00,160.00L133.00,180.00L92.00,180.00 "/> </g> </g>
</svg>
