<svg width="1000" height="1000" xmlns="http://www.w3.org/2000/svg">
 <g stroke="#000" stroke-linejoin="bevel" stroke-width="1.0">
  <g fill="#fff">
   <path d="ZM62,166L48,177L48,204L57,213L211,213L220,204L220,177L208,167L172,63L150,43L105,45L43,103L24,103L20,124L40,129L48,110L87,102L62,166Z" stroke-width="0.0"/>
   <path d="M208,167L62,166L87,102L48,110L43,103L105,45L150,43L172,63L208,167Z"/>
   <path d="M62,166L208,167L220,177L220,204L211,213L57,213L48,204L48,177L62,166Z"/>
   <path d="M43,103L48,110L40,129L20,124L24,103L43,103Z"/>
  </g>
<g fill="#ddd" fill-opacity="0.0"><path stroke="#ccc" stroke-opacity="0.3" stroke-linecap="round" stroke-width="20" d="M99.00,60.00 L159.00,60.00L168.00,80.00L78.00,80.00L56.00,100.00L175.00,100.00L182.00,120.00L31.00,120.00L65.00,140.00L189.00,140.00L196.00,160.00L70.00,160.00L58.00,180.00L210.00,180.00L210.00,200.00L58.00,200.00 "/> </g>  <g fill="#fff">
  </g>
<g fill="#ddd" fill-opacity="0.0"><path stroke="#ccc" stroke-opacity="0.3" stroke-linecap="round" stroke-width="20" d="M99.00,60.00 L159.00,60.00L168.00,80.00L78.00,80.00L56.00,100.00L175.00,100.00L182.00,120.00L31.00,120.00L65.00,140.00L189.00,140.00L196.00,160.00L70.00,160.00L58.00,180.00L210.00,180.00L210.00,200.00L58.00,200.00 "/> </g> </g>
</svg>
