<svg width="1000" height="1000" xmlns="http://www.w3.org/2000/svg">
 <g stroke="#000" stroke-linejoin="bevel" stroke-width="1.0">
  <g fill="#fff">
   <path d="ZM76,127L73,117L15,119L15,216L72,217L76,207L108,217L209,212L231,175L239,117L228,97L165,96L166,54L158,40L146,37L135,43L135,69L122,96L95,122L76,127Z" stroke-width="0.0"/>
   <path d="M76,207L76,127L95,122L122,96L135,69L135,43L146,37L158,40L166,54L165,96L228,97L239,117L231,175L209,212L108,217L76,207Z"/>
   <path d="M76,127L76,207L72,217L15,216L15,119L73,117L76,127Z"/>
  </g>
<g fill="#ddd" fill-opacity="0.0"><path stroke="#ccc" stroke-opacity="0.3" stroke-linecap="round" stroke-width="20" d="M151.00,40.00 L145.00,40.00L156.00,60.00L145.00,60.00L140.00,80.00L155.00,80.00L219.00,100.00L128.00,100.00L25.00,120.00L228.00,120.00L226.00,140.00L25.00,140.00L25.00,160.00L223.00,160.00L219.00,180.00L25.00,180.00L25.00,200.00L207.00,200.00 "/> </g> </g>
</svg>
